#!OML:ASF E:\id_vita\Project 1\Capture day 1\Session 1\Female.ASF
:FULLY-SPECIFIED
:DEGREES
1174
root 35.1153 16.2843 1.31722 355.239 79.345 346.567
lowerback -14.7388 3.15641 -0.657006
upperback -4.22192 4.43201 0.0885368
thorax 3.71769 2.26567 1.2451
lowerneck 8.87023 0.884034 -3.38896
upperneck -2.50354 1.06574 4.79812
head -2.41272 0.425664 2.10422
rclavicle 1.67476e-014 1.19271e-015
rhumerus -26.0478 -6.96078 -92.1605
rradius 32.944
rwrist 3.19555
rhand -15.6853 7.7659
rfingers 7.12502
rthumb 10.5038 -21.9517
lclavicle 1.67476e-014 1.19271e-015
lhumerus -129.129 27.6742 -56.7914
lradius 13.1388
lwrist -133.86
lhand -4.66365 25.2259
lfingers 7.12502
lthumb 21.1165 54.096
rfemur 4.65847 1.6762 24.0476
rtibia 26.5623
rfoot -11.9753 10.4707
rtoes -8.37479
lfemur -34.915 -8.32496 -13.3535
ltibia 22.8401
lfoot -5.90489 10.5968
ltoes -9.93313
1175
root 35.2811 16.2864 1.30706 357.148 79.6373 348.521
lowerback -14.7858 2.93967 -1.14745
upperback -4.36715 4.22683 0.0368497
thorax 3.56364 2.16892 1.42669
lowerneck 8.89688 0.945214 -3.42672
upperneck -2.31966 1.14328 4.88592
head -2.36159 0.463409 2.13489
rclavicle -4.32357e-014 -7.15625e-015
rhumerus -26.8361 -7.33968 -92.0523
rradius 32.736
rwrist 3.42153
rhand -15.6336 8.15107
rfingers 7.12502
rthumb 10.5536 -21.564
lclavicle -4.32357e-014 -7.15625e-015
lhumerus -129.498 27.4389 -57.3121
lradius 13.2497
lwrist -134.463
lhand -4.18934 25.5595
lfingers 7.12502
lthumb 21.5721 54.378
rfemur 4.16477 0.666409 23.2795
rtibia 28.4033
rfoot -10.3908 11.5601
rtoes -5.83612
lfemur -34.506 -7.41842 -14.5698
ltibia 23.4761
lfoot -6.02078 8.81203
ltoes -8.14367
1176
root 35.4506 16.3014 1.29242 358.074 79.9577 349.572
lowerback -15.1655 2.8585 -1.24595
upperback -4.17193 4.1397 -0.0663885
thorax 3.97697 2.11575 1.38989
lowerneck 8.55864 0.921838 -3.33219
upperneck -2.18964 1.12403 4.84884
head -2.25285 0.458344 2.10282
rclavicle -5.96354e-016 -1.19271e-015
rhumerus -27.1922 -7.81305 -91.9418
rradius 32.5876
rwrist 3.37041
rhand -15.6241 8.37644
rfingers 7.12502
rthumb 10.5627 -21.3381
lclavicle -5.96354e-016 -1.19271e-015
lhumerus -131.278 26.5266 -59.9424
lradius 13.5562
lwrist -137.19
lhand -4.25308 25.5672
lfingers 7.12502
lthumb 21.5109 54.3927
rfemur 3.72242 -0.410521 22.6886
rtibia 30.5109
rfoot -8.68712 12.5357
rtoes -4.24619
lfemur -34.3182 -6.88669 -15.3923
ltibia 24.0341
lfoot -5.53035 7.14644
ltoes -6.16695
1177
root 35.6141 16.3127 1.27585 359.267 80.2967 350.895
lowerback -15.219 2.74851 -1.41839
upperback -4.18666 4.02707 -0.147806
thorax 3.98773 2.0599 1.38377
lowerneck 8.20373 0.923002 -3.29293
upperneck -1.6883 1.12188 4.79451
head -2.01996 0.466147 2.07078
rclavicle -2.78299e-015 0
rhumerus -27.8379 -8.16325 -91.7888
rradius 32.5318
rwrist 3.01175
rhand -15.4189 7.71384
rfingers 7.12502
rthumb 10.7607 -21.9905
lclavicle -2.78299e-015 0
lhumerus -132.496 25.8366 -61.7444
lradius 13.8081
lwrist -139.038
lhand -4.20431 25.4966
lfingers 7.12502
lthumb 21.5577 54.3168
rfemur 3.10184 -1.56489 22.0197
rtibia 32.8859
rfoot -7.07163 13.5641
rtoes -4.38946
lfemur -33.9053 -6.35084 -16.3224
ltibia 24.583
lfoot -5.49283 5.86679
ltoes -4.55728
1178
root 35.7699 16.3213 1.26431 360.777 80.5825 352.411
lowerback -15.3345 2.57244 -1.73014
upperback -4.26282 3.85075 -0.189311
thorax 3.9573 1.97473 1.48721
lowerneck 8.23336 1.00412 -3.08458
upperneck -1.60183 1.23761 4.54477
head -1.99498 0.529036 1.94452
rclavicle 1.35174e-014 -1.19271e-015
rhumerus -28.5717 -8.75745 -91.5153
rradius 32.2087
rwrist 3.68724
rhand -15.1243 7.64257
rfingers 7.12502
rthumb 11.0449 -22.0468
lclavicle 1.35174e-014 -1.19271e-015
lhumerus -133.118 25.9239 -62.2561
lradius 13.8682
lwrist -139.321
lhand -3.94342 25.8985
lfingers 7.12502
lthumb 21.8083 54.6897
rfemur 2.21085 -2.46988 21.4351
rtibia 35.2629
rfoot -5.24452 14.1489
rtoes -5.74319
lfemur -33.6089 -5.96514 -17.1439
ltibia 25.0172
lfoot -5.78685 4.86262
ltoes -3.22749
1179
root 35.9273 16.3283 1.2553 362.062 80.8355 353.647
lowerback -15.4534 2.40356 -2.03382
upperback -4.44284 3.68486 -0.185919
thorax 3.81751 1.90005 1.63155
lowerneck 7.88078 1.05181 -3.07031
upperneck -0.872245 1.29336 4.53791
head -1.6939 0.566913 1.9302
rclavicle 3.68249e-014 4.77083e-015
rhumerus -29.5505 -9.37595 -91.1495
rradius 32.1512
rwrist 4.1531
rhand -14.64 7.51286
rfingers 7.12502
rthumb 11.512 -22.151
lclavicle 3.68249e-014 4.77083e-015
lhumerus -133.381 26.2696 -62.231
lradius 13.8158
lwrist -139.024
lhand -3.95922 26.4737
lfingers 7.12502
lthumb 21.7931 55.2667
rfemur 1.21004 -2.94963 21.0837
rtibia 37.6847
rfoot -3.20941 13.9687
rtoes -6.37021
lfemur -33.3531 -5.63246 -17.8242
ltibia 25.3337
lfoot -6.23256 3.62673
ltoes -1.43725
1180
root 36.0828 16.3581 1.24275 363.188 81.0879 354.726
lowerback -15.703 2.29761 -2.20399
upperback -4.46742 3.58214 -0.202369
thorax 3.92006 1.84901 1.7039
lowerneck 7.69701 1.091 -3.1057
upperneck -0.652279 1.34016 4.52092
head -1.59151 0.594423 1.92707
rclavicle -1.2424e-014 3.97569e-016
rhumerus -30.1445 -10.0836 -90.7833
rradius 31.9983
rwrist 4.30586
rhand -14.2623 7.35148
rfingers 7.12502
rthumb 11.8762 -22.2917
lclavicle -1.2424e-014 3.97569e-016
lhumerus -134.474 26.0695 -63.391
lradius 13.8942
lwrist -140.002
lhand -3.92852 26.6573
lfingers 7.12502
lthumb 21.8226 55.4468
rfemur 0.0765055 -3.54562 20.73
rtibia 40.2033
rfoot -0.739002 13.8762
rtoes -2.97657
lfemur -33.0038 -5.52843 -18.3529
ltibia 25.5709
lfoot -6.66909 2.67084
ltoes 0.393673
1181
root 36.2382 16.397 1.22149 364.659 81.2813 356.231
lowerback -16.0329 2.26622 -2.22401
upperback -4.31827 3.55601 -0.300967
thorax 4.261 1.82669 1.62929
lowerneck 7.56178 1.11718 -3.02755
upperneck -0.697509 1.38029 4.3875
head -1.58051 0.617476 1.86769
rclavicle -1.04362e-014 -7.95139e-016
rhumerus -30.538 -11.1702 -90.3546
rradius 31.884
rwrist 4.84623
rhand -13.7302 6.93299
rfingers 7.12502
rthumb 12.3892 -22.6799
lclavicle -1.04362e-014 -7.95139e-016
lhumerus -135.561 26.3306 -64.2012
lradius 13.9179
lwrist -140.682
lhand -3.67765 26.6685
lfingers 7.12502
lthumb 22.0635 55.4299
rfemur -1.03249 -4.44854 20.1382
rtibia 42.7485
rfoot 0.906843 13.7349
rtoes -2.1982
lfemur -32.4153 -5.60092 -18.9491
ltibia 25.816
lfoot -7.0795 2.51657
ltoes 1.80014
1182
root 36.3911 16.4069 1.19978 368.197 81.4118 359.825
lowerback -16.119 2.15832 -2.63194
upperback -4.3946 3.49197 -0.410913
thorax 4.21154 1.79706 1.73279
lowerneck 7.83643 1.15772 -3.01364
upperneck -0.734954 1.42708 4.25063
head -1.64111 0.641068 1.81936
rclavicle -3.49861e-014 7.95139e-016
rhumerus -31.4009 -12.0539 -89.7885
rradius 31.7211
rwrist 5.20882
rhand -13.2932 6.81793
rfingers 7.12502
rthumb 12.8105 -22.769
lclavicle -3.49861e-014 7.95139e-016
lhumerus -134.542 28.7481 -61.4614
lradius 13.4942
lwrist -137.592
lhand -3.08207 27.0829
lfingers 7.12502
lthumb 22.6352 55.7756
rfemur -2.17557 -5.09195 19.3224
rtibia 45.37
rfoot 2.78014 13.3963
rtoes -1.74763
lfemur -31.8129 -5.65317 -19.8813
ltibia 25.9499
lfoot -7.34911 2.51861
ltoes 3.14224
1183
root 36.5257 16.412 1.185 368.756 81.6286 360.552
lowerback -15.7695 2.06916 -2.60521
upperback -4.51146 3.36211 -0.446213
thorax 3.91037 1.74135 1.63541
lowerneck 8.15595 1.22828 -2.95358
upperneck -0.867379 1.52101 4.15862
head -1.74279 0.686098 1.77613
rclavicle -2.01766e-014 -8.34896e-015
rhumerus -32.1653 -12.8493 -89.3173
rradius 31.2102
rwrist 5.5477
rhand -13.2436 7.04446
rfingers 7.12502
rthumb 12.8584 -22.5395
lclavicle -2.01766e-014 -8.34896e-015
lhumerus -133.655 30.9188 -59.2283
lradius 13.1123
lwrist -135.06
lhand -2.49234 27.4506
lfingers 7.12502
lthumb 23.2011 56.0732
rfemur -3.24511 -5.68654 19.0532
rtibia 47.9702
rfoot 4.82579 12.8669
rtoes -1.75725
lfemur -31.232 -5.79352 -20.2709
ltibia 26.1463
lfoot -7.5819 2.41226
ltoes 3.99843
1184
root 36.6657 16.4321 1.1712 370.781 81.7188 362.643
lowerback -15.9267 1.93783 -2.79258
upperback -4.38133 3.22563 -0.513607
thorax 4.13175 1.66581 1.65635
lowerneck 7.9813 1.39257 -2.64637
upperneck -0.927018 1.75943 3.79609
head -1.72867 0.812381 1.59349
rclavicle -2.27111e-014 -1.98785e-016
rhumerus -32.3826 -13.4836 -88.9808
rradius 30.5413
rwrist 6.12003
rhand -13.2223 7.26456
rfingers 7.12502
rthumb 12.879 -22.3181
lclavicle -2.27111e-014 -1.98785e-016
lhumerus -134.689 31.5814 -59.8271
lradius 12.9474
lwrist -135.098
lhand -2.23114 27.321
lfingers 7.12502
lthumb 23.4517 55.9118
rfemur -4.53933 -6.29361 18.5818
rtibia 50.5943
rfoot 7.30374 12.3797
rtoes 1.82975
lfemur -30.6882 -5.94439 -20.8019
ltibia 26.2671
lfoot -7.90046 2.36065
ltoes 3.91773
1185
root 36.8054 16.4527 1.15356 369.656 81.8287 361.768
lowerback -15.2969 1.88198 -2.55147
upperback -4.6273 3.09134 -0.430307
thorax 3.54862 1.61607 1.54762
lowerneck 8.09614 1.56864 -2.33727
upperneck -0.624713 2.00566 3.42374
head -1.64682 0.944456 1.4069
rclavicle -5.11871e-015 -7.7526e-015
rhumerus -33.2702 -13.8319 -88.52
rradius 29.9281
rwrist 6.34375
rhand -13.075 7.57747
rfingers 7.12502
rthumb 13.0209 -21.9962
lclavicle -5.11871e-015 -7.7526e-015
lhumerus -133.653 33.5442 -57.582
lradius 12.5769
lwrist -132.362
lhand -2.10289 26.8759
lfingers 7.12502
lthumb 23.5747 55.4509
rfemur -5.56159 -6.68628 18.6213
rtibia 53.0756
rfoot 8.01869 11.1904
rtoes -0.948374
lfemur -29.8526 -5.98262 -20.919
ltibia 26.2969
lfoot -8.21158 2.22754
ltoes 3.44333
1186
root 36.9331 16.4755 1.14225 371.541 81.8874 363.732
lowerback -15.4196 1.85682 -2.71922
upperback -4.48229 3.08931 -0.520197
thorax 3.76356 1.607 1.55705
lowerneck 8.23714 1.56941 -2.52777
upperneck -0.982611 1.99358 3.5174
head -1.79353 0.932896 1.47242
rclavicle -1.54058e-014 9.93923e-015
rhumerus -33.3967 -14.6317 -88.0843
rradius 29.1581
rwrist 6.87713
rhand -12.9704 7.52546
rfingers 7.12502
rthumb 13.1217 -22.0417
lclavicle -1.54058e-014 9.93923e-015
lhumerus -132.544 36.519 -54.7476
lradius 12.2047
lwrist -129.196
lhand -2.33937 26.193
lfingers 7.12502
lthumb 23.3479 54.797
rfemur -6.83079 -6.89013 18.3541
rtibia 55.4952
rfoot 9.15577 9.59689
rtoes -1.69852
lfemur -29.1895 -6.03109 -21.4357
ltibia 26.1921
lfoot -8.38224 2.15509
ltoes 3.13361
1187
root 37.0559 16.4926 1.13354 372.173 81.953 364.636
lowerback -15.1765 1.82006 -2.79557
upperback -4.39329 3.03974 -0.520113
thorax 3.72496 1.57942 1.58282
lowerneck 8.89786 1.57834 -2.69967
upperneck -1.78307 1.98826 3.52004
head -2.18042 0.920504 1.50696
rclavicle -2.8302e-014 -9.54166e-015
rhumerus -33.704 -15.4473 -87.5375
rradius 28.4592
rwrist 7.65866
rhand -12.8628 7.1016
rfingers 7.12502
rthumb 13.2255 -22.4589
lclavicle -2.8302e-014 -9.54166e-015
lhumerus -129.674 40.5137 -49.5641
lradius 11.7328
lwrist -124.099
lhand -2.40337 25.9055
lfingers 7.12502
lthumb 23.2865 54.5173
rfemur -7.88482 -6.99404 18.3589
rtibia 57.8299
rfoot 10.0018 7.7208
rtoes -1.47892
lfemur -28.3292 -5.9267 -21.7606
ltibia 26.0212
lfoot -8.60744 2.03198
ltoes 3.40868
1188
root 37.1703 16.5066 1.12457 371.939 82.0533 364.63
lowerback -14.8339 1.78991 -2.72579
upperback -4.33085 2.97152 -0.48307
thorax 3.61106 1.54474 1.55716
lowerneck 8.24034 1.65211 -2.82764
upperneck -1.1354 2.07569 3.54016
head -1.85252 0.973421 1.53012
rclavicle 1.07592e-014 -4.17448e-015
rhumerus -33.9691 -16.2195 -86.95
rradius 27.7049
rwrist 8.45321
rhand -12.7461 6.98091
rfingers 7.12502
rthumb 13.3379 -22.5722
lclavicle 1.07592e-014 -4.17448e-015
lhumerus -124.611 45.319 -41.6551
lradius 11.3019
lwrist -117.179
lhand -2.15815 25.9756
lfingers 7.12502
lthumb 23.5217 54.5574
rfemur -8.98244 -7.25918 18.4385
rtibia 60.0573
rfoot 10.117 5.85226
rtoes -1.88738
lfemur -27.4777 -5.77627 -21.9828
ltibia 25.7177
lfoot -8.83118 1.79849
ltoes 3.25913
